inDegrees=yes
name=ik_lifting_orientations
DataType=double
version=3
OpenSimVersion=4.5-2024-01-10-34fd6af
endheader
time	pelvis_tilt	pelvis_list	pelvis_rotation	pelvis_tx	pelvis_ty	pelvis_tz	hip_flexion_r	hip_adduction_r	hip_rotation_r	knee_angle_r	knee_angle_r_beta	ankle_angle_r	subtalar_angle_r	mtp_angle_r	hip_flexion_l	hip_adduction_l	hip_rotation_l	knee_angle_l	knee_angle_l_beta	ankle_angle_l	subtalar_angle_l	mtp_angle_l	lumbar_extension	lumbar_bending	lumbar_rotation	arm_flex_r	arm_add_r	arm_rot_r	elbow_flex_r	pro_sup_r	wrist_flex_r	wrist_dev_r	arm_flex_l	arm_add_l	arm_rot_l	elbow_flex_l	pro_sup_l	wrist_flex_l	wrist_dev_l
1.2	27.61070690336745	-4.208899321235595	-143.7252537227479	0	0.9399999998679526	0	45.00170989303304	-10.55993909341639	0	59.79441909929379	1.043609487600059	-5.17830837529465	0	0	45.00170989303304	-10.55993909341639	0	59.79441909929379	1.043609487600059	-5.17830837529465	0	0	-82.49479376887264	-56.1591764952738	-16.99604568426337	76.61571565445922	-12.00336530714369	5.298490435600579	49.36051034436061	2.683157832637721	0	0	0	-10.29949474805456	0	87.3543280070399	2.683157832637721	0	0
1.21	26.60256388987269	-4.185935483396947	-143.7673161651731	0	0.9399999998679526	0	45.0017082547444	-10.55805955939577	0	59.79457340656912	1.043612180770073	-5.177527587373208	0	0	45.0017082547444	-10.55805955939577	0	59.79457340656912	1.043612180770073	-5.177527587373208	0	0	-81.0170928680292	-56.32147185107175	-14.86489399628809	75.60336209636822	-12.03361390867206	4.879682552467026	50.1622224918399	2.681369204180357	0	0	0	-10.30180095994033	0	87.35609149113996	2.681369204180357	0	0
1.22	25.58401713962622	-4.159657514362663	-143.8397268977315	0	0.9399999998679526	0	45.0017061785325	-10.55568289761255	0	59.79476891300533	1.043615593001094	-5.176541359931641	0	0	45.0017061785325	-10.55568289761255	0	59.79476891300533	1.043615593001094	-5.176541359931641	0	0	-79.45891303521404	-56.34999283537893	-12.54069292886292	74.5615599922948	-12.2276479139625	4.393334633803159	51.04534242269963	2.679102114679204	0	0	0	-10.30472422657173	0	87.35832671019776	2.679102114679204	0	0
1.23	24.45452032182506	-4.04502911866401	-143.5946527665622	0	0.9399999998679526	0	45.001704539629	-10.55381330567539	0	59.79492336285809	1.043618288659554	-5.175766565525859	0	0	45.001704539629	-10.55381330567539	0	59.79492336285809	1.043618288659554	-5.175766565525859	0	0	-77.70283665778878	-55.93565468402004	-9.908898171206777	73.4860573811129	-12.53465275272047	4.037678938201601	52.09321263758217	2.67731156126422	0	0	0	-10.30703390859033	0	87.36009209239144	2.67731156126422	0	0
1.24	23.08926484393809	-3.913177143502158	-143.1414590404354	0	0.9399999998679526	0	45.00170281857176	-10.55185656650903	0	59.79508571758587	1.04362112228411	-5.174956627457822	0	0	45.00170281857176	-10.55185656650903	0	59.79508571758587	1.04362112228411	-5.174956627457822	0	0	-75.73160544970287	-55.31109194232373	-6.961221494270517	72.17658737750308	-12.73568988759939	4.30375408977146	53.07393486185379	2.67543013250144	0	0	0	-10.30946187652017	0	87.36194707258508	2.67543013250144	0	0
1.25	21.72031327413332	-3.781436909274861	-142.7144014730757	0	0.9399999998679526	0	45.0017011027489	-10.54990879724758	0	59.79524749720913	1.043623945871198	-5.174151102074051	0	0	45.0017011027489	-10.54990879724758	0	59.79524749720913	1.043623945871198	-5.174151102074051	0	0	-73.68292049729864	-54.65552000940747	-4.234482965352933	70.80547199105686	-12.87781518660685	5.036198595312382	54.06662570532304	2.673554381940981	0	0	0	-10.31188239142175	0	87.36379645442412	2.673554381940981	0	0
1.26	20.34204170575073	-3.670183813719996	-142.1667869296597	0	0.9399999998679526	0	45.00169961651748	-10.54822667091654	0	59.79538772950916	1.043626393386551	-5.173456215836959	0	0	45.00169961651748	-10.54822667091654	0	59.79538772950916	1.043626393386551	-5.173456215836959	0	0	-71.87723879227754	-53.75447806133825	-1.674621328084874	69.47148382722931	-13.10201394303221	5.714268386553322	55.11380147687899	2.671928842572949	0	0	0	-10.31398073793058	0	87.36539914257442	2.671928842572949	0	0
1.27	18.98201082701421	-3.436152979021191	-141.3058015050648	0	0.9399999998679526	0	45.00169807309701	-10.5464838986325	0	59.79553337687586	1.043628935412647	-5.172737007618701	0	0	45.00169807309701	-10.5464838986325	0	59.79553337687586	1.043628935412647	-5.172737007618701	0	0	-70.0689933383025	-52.51141853051043	0.8625482446145871	68.21050597448981	-12.95089737489261	5.016339547318863	56.03421023805515	2.670240319585612	0	0	0	-10.31616069704617	0	87.36706392901203	2.670240319585612	0	0
1.28	17.56494431849829	-3.220859008447574	-140.4265843016432	0	0.9399999998679526	0	45.00168490147373	-10.53609843126035	0	59.79709263794894	1.04365614965227	-5.168787231659196	0	0	45.00168490147373	-10.53609843126035	0	59.79709263794894	1.04365614965227	-5.168787231659196	0	0	-67.86225892249617	-51.04834779124512	3.815688738059325	67.7243503441078	-13.94868660062935	6.633788072841221	56.16204706885664	2.654434647544671	0	0	0	-10.33811620397121	0	87.38264758511939	2.654434647544671	0	0
1.29	15.94879491482643	-3.02815749360255	-139.6120392178571	0	0.9399999998679526	0	45.00167190700088	-10.52597737426874	0	59.79863194519044	1.043683015631834	-5.164953933006858	0	0	45.00167190700088	-10.52597737426874	0	59.79863194519044	1.043683015631834	-5.164953933006858	0	0	-65.66798301799165	-49.49725835252011	6.814049223592586	67.18794660146057	-14.900672361954	8.389785510611217	55.89616655975203	2.638809664972952	0	0	0	-10.35985072917115	0	87.39805309327554	2.638809664972952	0	0
